<?xml version="1.0" encoding="UTF-8"?>
<!DOCTYPE svg PUBLIC "-//W3C//DTD SVG 1.1//EN" "http://www.w3.org/Graphics/SVG/1.1/DTD/svg11.dtd">
<svg xmlns="http://www.w3.org/2000/svg" version="1.1" width="24px" height="24px" style="shape-rendering:geometricPrecision; text-rendering:geometricPrecision; image-rendering:optimizeQuality; fill-rule:evenodd; clip-rule:evenodd" xmlns:xlink="http://www.w3.org/1999/xlink">
<g><path style="opacity:0.919" fill="#55abee" d="M 23.5,1.5 C 23.5,2.83333 23.5,4.16667 23.5,5.5C 21.9538,9.04733 20.2872,12.714 18.5,16.5C 13.0669,21.5541 6.73355,22.8874 -0.5,20.5C -0.5,19.8333 -0.5,19.1667 -0.5,18.5C 1.42865,18.7692 3.09531,18.2692 4.5,17C 2.19048,14.8673 0.523809,12.3673 -0.5,9.5C -0.5,9.16667 -0.5,8.83333 -0.5,8.5C 0.164619,6.6309 0.831285,4.6309 1.5,2.5C 3.95428,4.81049 6.78761,6.47716 10,7.5C 10.2949,5.06938 11.4616,3.23605 13.5,2C 16.9355,1.98196 20.2688,1.81529 23.5,1.5 Z"/></g>
</svg>
