<?xml version="1.0" encoding="UTF-8"?>
<svg version="1.1" xmlns="http://www.w3.org/2000/svg" width="272" height="185">
<path d="M0 0 C10.23 0 20.46 0 31 0 C35.49930855 8.9986171 35.49930855 8.9986171 36.68139648 12.31811523 C37.09104645 13.45608803 37.09104645 13.45608803 37.50897217 14.61705017 C37.79347229 15.42275955 38.07797241 16.22846893 38.37109375 17.05859375 C38.84267914 18.37320335 38.84267914 18.37320335 39.3237915 19.71437073 C40.00661459 21.61881769 40.687295 23.52403397 41.36605835 25.42993164 C43.23820921 30.68511441 45.12743155 35.93415811 47.015625 41.18359375 C47.61542427 42.85257217 47.61542427 42.85257217 48.2273407 44.55526733 C52.9703149 57.73189434 57.83172597 70.86463116 62.6875 84 C69.30718093 101.91817125 75.87866112 119.85097686 82.28417969 137.84692383 C84.91124699 145.2218137 87.57494961 152.57884568 90.33203125 159.90625 C90.86188814 161.32134358 91.39167499 162.7364634 91.92138672 164.15161133 C92.89936075 166.76295539 93.89095125 169.3685222 94.89111328 171.97143555 C95.31763184 173.1087915 95.74415039 174.24614746 96.18359375 175.41796875 C96.56056396 176.40563232 96.93753418 177.3932959 97.32592773 178.41088867 C98.02781678 181.10684422 97.95769833 182.42263677 97 185 C92.92512506 185.12366555 88.85097699 185.21436476 84.7746582 185.2746582 C83.38839696 185.29979219 82.00226813 185.33390592 80.61645508 185.37719727 C78.62378963 185.43788396 76.63015467 185.46354879 74.63671875 185.48828125 C73.43748779 185.51446533 72.23825684 185.54064941 71.00268555 185.56762695 C68 185 68 185 66.32641602 183.11352539 C64.4423734 178.69107086 62.75709989 174.22200663 61.140625 169.6953125 C60.7632016 168.65209335 60.3857782 167.60887421 59.99691772 166.53404236 C59.17526866 164.26108508 58.35602072 161.98725873 57.53887939 159.712677 C56.00923607 155.45481842 54.47092261 151.20012508 52.9321804 146.94554806 C52.70570131 146.31929311 52.47922222 145.69303816 52.24588013 145.04780579 C52.01702244 144.41497492 51.78816475 143.78214405 51.55237198 143.13013649 C50.8437716 141.1698534 50.13588188 139.20931502 49.42819214 137.248703 C44.36356285 123.2197204 39.25220576 109.20786012 34.13513184 95.19793701 C32.89340328 91.79805999 31.65290131 88.39773704 30.41280365 84.99726486 C25.66415563 71.97714255 20.91034746 58.96020203 16 46 C12.78297501 52.90818103 10.1110961 59.95369226 7.54296875 67.125 C7.12307175 68.2888472 6.70317474 69.4526944 6.27055359 70.65180969 C5.37236299 73.14234252 4.47532082 75.6332523 3.58026123 78.12490845 C2.17257936 82.04317815 0.75994026 85.95964826 -0.65380859 89.87573242 C-0.88968311 90.52915336 -1.12555763 91.18257429 -1.36857986 91.85579586 C-1.84496267 93.17547226 -2.32135604 94.49514485 -2.79776001 95.81481361 C-3.51180062 97.79319559 -4.22544135 99.77172138 -4.93896484 101.75028992 C-13.04040732 124.21294511 -21.19211342 146.66009433 -29.59051514 169.01376343 C-30.28951676 170.87626089 -30.98394818 172.74047159 -31.67822266 174.60473633 C-32.08991699 175.69294678 -32.50161133 176.78115723 -32.92578125 177.90234375 C-33.28067627 178.84585693 -33.63557129 179.78937012 -34.0012207 180.76147461 C-35 183 -35 183 -37 185 C-39.88916016 185.22705078 -39.88916016 185.22705078 -43.5390625 185.1953125 C-45.49199219 185.18564453 -45.49199219 185.18564453 -47.484375 185.17578125 C-48.86458595 185.15906929 -50.24479429 185.14213939 -51.625 185.125 C-53.01301452 185.11497006 -54.40103589 185.10584423 -55.7890625 185.09765625 C-59.19288026 185.07401863 -62.59635506 185.04106867 -66 185 C-67.2185275 181.3444175 -66.66382343 180.36697175 -65.36035156 176.8112793 C-64.97534485 175.74713303 -64.59033813 174.68298676 -64.19366455 173.58659363 C-63.7636615 172.42750992 -63.33365845 171.26842621 -62.890625 170.07421875 C-62.44918152 168.86224319 -62.00773804 167.65026764 -61.55291748 166.40156555 C-60.36843448 163.15003943 -59.17289302 159.90268594 -57.97503662 156.65606689 C-56.80363926 153.47557367 -55.64242896 150.29137213 -54.48046875 147.10742188 C-52.13508533 140.68628631 -49.77776062 134.26958451 -47.41748047 127.85391235 C-45.1127519 121.58901261 -42.81407652 115.32189255 -40.515625 109.0546875 C-40.06386902 107.82304871 -39.61211304 106.59140991 -39.14666748 105.32244873 C-36.08871587 96.98116079 -33.04187867 88.63587505 -30.00205231 80.28796577 C-29.28122553 78.30852655 -28.56017311 76.32916965 -27.83905029 74.34983826 C-27.35754241 73.02814794 -26.87603606 71.70645706 -26.39453125 70.38476562 C-26.15587971 69.72970063 -25.91722816 69.07463564 -25.67134476 68.39972019 C-24.46408528 65.08557066 -23.25751609 61.77117244 -22.05224609 58.45629883 C-16.73203503 43.82601298 -11.36342339 29.2165451 -5.84375 14.66015625 C-5.60426132 14.02793089 -5.36477264 13.39570553 -5.11802673 12.74432182 C-1.18331592 2.36663184 -1.18331592 2.36663184 0 0 Z " fill="#EC8120" transform="translate(107,0)"/>
<path d="M0 0 C1.20446777 0.01047363 2.40893555 0.02094727 3.64990234 0.03173828 C5.60283203 0.04140625 5.60283203 0.04140625 7.59521484 0.05126953 C8.9754258 0.06798149 10.35563413 0.08491139 11.73583984 0.10205078 C13.12385436 0.11208072 14.51187574 0.12120655 15.89990234 0.12939453 C19.3037201 0.15303215 22.70719491 0.18598211 26.11083984 0.22705078 C27.20498655 3.49668832 27.03023876 5.27412807 25.82592773 8.48095703 C25.36171417 9.7417659 25.36171417 9.7417659 24.88812256 11.02804565 C24.54009583 11.93934235 24.19206909 12.85063904 23.83349609 13.78955078 C23.47652649 14.75055695 23.11955688 15.71156311 22.75177002 16.70169067 C21.56870171 19.8805402 20.37081432 23.05360321 19.17333984 26.22705078 C18.33836119 28.46470755 17.50463724 30.70283287 16.67211914 32.94140625 C14.9685841 37.52077508 13.26080167 42.09852478 11.55029297 46.67529297 C8.43569331 55.02350096 5.39029794 63.39629579 2.35693359 71.77429199 C0.75222376 76.20507882 -0.85774007 80.63395613 -2.46728516 85.06298828 C-2.80538208 85.99357056 -3.143479 86.92415283 -3.49182129 87.88293457 C-8.08657965 100.52679725 -12.69404906 113.16602591 -17.30459595 125.80413818 C-18.30233135 128.53917745 -19.299541 131.2744074 -20.29623413 134.00982666 C-25.1654344 147.37232662 -30.05000132 160.72904813 -35.01806641 174.05517578 C-35.39640121 175.07520691 -35.77473602 176.09523804 -36.16453552 177.1461792 C-36.51008987 178.06908752 -36.85564423 178.99199585 -37.21166992 179.94287109 C-37.51307388 180.75056946 -37.81447784 181.55826782 -38.12501526 182.39044189 C-38.88916016 184.22705078 -38.88916016 184.22705078 -39.88916016 185.22705078 C-42.1077128 185.3148862 -44.32904512 185.33399687 -46.54931641 185.32470703 C-47.54601601 185.32258461 -47.54601601 185.32258461 -48.56285095 185.32041931 C-50.69249915 185.31480596 -52.82204355 185.30225132 -54.95166016 185.28955078 C-56.39241385 185.2845375 -57.83316919 185.27997429 -59.27392578 185.27587891 C-62.81237118 185.26483223 -66.35075554 185.2475587 -69.88916016 185.22705078 C-69.34708991 178.55079637 -67.56205876 172.88495272 -65.22509766 166.62939453 C-64.84552414 165.59227829 -64.46595062 164.55516205 -64.07487488 163.48661804 C-62.81250008 160.0429834 -61.53828114 156.60385488 -60.26416016 153.16455078 C-59.3634908 150.71417886 -58.46368811 148.26348823 -57.56469727 145.8125 C-55.90246684 141.28222481 -54.23726308 136.75306259 -52.56848049 132.22519684 C-49.42097069 123.68443097 -46.29653842 115.13540494 -43.18212891 106.58251953 C-42.22814496 103.96304019 -41.27412423 101.34357424 -40.32006836 98.72412109 C-40.08360187 98.07484964 -39.84713537 97.42557819 -39.60350323 96.75663185 C-36.49473695 88.22258768 -33.37465882 79.69267868 -30.25428772 71.16287231 C-29.77287476 69.84686398 -29.29146506 68.53085446 -28.81005859 67.21484375 C-28.57111846 66.56167994 -28.33217833 65.90851612 -28.08599758 65.23555946 C-26.34132307 60.46549649 -24.59961344 55.69435642 -22.85888672 50.92285156 C-20.63899643 44.83817287 -18.41495972 38.75502805 -16.18593121 32.6736908 C-15.02067061 29.49426517 -13.85724677 26.31419743 -12.69851685 23.13238525 C-11.4274037 19.64508911 -10.14941771 16.16038939 -8.86962891 12.67626953 C-8.49367584 11.63994888 -8.11772278 10.60362823 -7.7303772 9.53590393 C-7.3834079 8.59568893 -7.0364386 7.65547394 -6.67895508 6.68676758 C-6.37970627 5.86863083 -6.08045746 5.05049408 -5.7721405 4.20756531 C-4.35365255 1.02591352 -3.5088585 0.27575109 0 0 Z " fill="#EC8120" transform="translate(69.88916015625,-0.22705078125)"/>
<path d="M0 0 C1.25159912 0.00523682 2.50319824 0.01047363 3.79272461 0.01586914 C4.78942421 0.01799156 4.78942421 0.01799156 5.80625916 0.02015686 C7.93590735 0.02577021 10.06545175 0.03832485 12.19506836 0.05102539 C13.63582205 0.05603868 15.07657739 0.06060188 16.51733398 0.06469727 C20.05577938 0.07574394 23.59416375 0.09301747 27.13256836 0.11352539 C26.59049824 6.78977824 24.8054662 12.45562748 22.46850586 18.71118164 C22.08866043 19.74902298 21.708815 20.78686432 21.31745911 21.8561554 C20.05534043 25.29905061 18.78140057 28.7374487 17.50756836 32.17602539 C16.61128788 34.61467652 15.71587926 37.05364823 14.82128906 39.49291992 C13.16386256 44.01053308 11.50342805 48.52702027 9.83933735 53.04218292 C5.86702336 63.82078128 1.93064874 74.61238142 -2.00318909 85.4050684 C-2.24665573 86.07303157 -2.49012238 86.74099474 -2.7409668 87.42919922 C-2.98395004 88.09589599 -3.22693329 88.76259275 -3.47727966 89.44949245 C-5.18257772 94.12739329 -6.89189498 98.80381201 -8.60327148 103.47949219 C-9.55733079 106.08662585 -10.51127729 108.69380074 -11.46508789 111.30102539 C-11.69702599 111.93501062 -11.92896408 112.56899586 -12.1679306 113.22219276 C-14.95053161 120.83115553 -17.71273336 128.44691908 -20.44169617 136.07528687 C-21.84137827 139.98760444 -23.24850466 143.8972245 -24.65609741 147.80670166 C-25.29090037 149.57760463 -25.92154054 151.350006 -26.54776001 153.1239624 C-27.3890249 155.50705282 -28.24373661 157.88488292 -29.10180664 160.26196289 C-29.34132553 160.95338379 -29.58084442 161.64480469 -29.82762146 162.35717773 C-30.51489258 164.23608398 -30.51489258 164.23608398 -31.86743164 167.11352539 C-32.85743164 167.44352539 -33.84743164 167.77352539 -34.86743164 168.11352539 C-38.15633848 166.46907197 -38.68917781 162.8648622 -39.90649414 159.57055664 C-40.19221283 158.80934006 -40.47793152 158.04812347 -40.77230835 157.26383972 C-41.37599902 155.64859697 -41.97596228 154.03195702 -42.57250977 152.4140625 C-43.48393065 149.94901731 -44.41311357 147.49119901 -45.34399414 145.03344727 C-45.9284247 143.46289159 -46.51179224 141.89193984 -47.09399414 140.32055664 C-47.37207916 139.58907913 -47.65016418 138.85760162 -47.93667603 138.10395813 C-48.31739761 137.05838997 -48.31739761 137.05838997 -48.70581055 135.99169922 C-48.93072174 135.38626785 -49.15563293 134.78083649 -49.38735962 134.15705872 C-50.53124351 129.28786254 -49.84614678 125.31119178 -48.07763672 120.71118164 C-47.68493088 119.6726001 -47.29222504 118.63401855 -46.88761902 117.56396484 C-46.4542775 116.44594482 -46.02093597 115.3279248 -45.57446289 114.17602539 C-44.64856013 111.73367143 -43.72362979 109.29094865 -42.79956055 106.84790039 C-42.55869437 106.21499588 -42.3178282 105.58209137 -42.06966305 104.93000793 C-39.65842287 98.59164712 -37.33132834 92.22367507 -35.01573944 85.84986496 C-34.07419108 83.25879592 -33.12992223 80.6687214 -32.1857605 78.07860374 C-31.46457418 76.100047 -30.74376227 74.12135415 -30.02301025 72.14263916 C-16.3261035 34.54591235 -16.3261035 34.54591235 -9.81533813 16.96166992 C-9.27059745 15.4900115 -8.72678093 14.01801064 -8.18392944 12.5456543 C-7.45886409 10.5802351 -6.73024637 8.61617775 -6.00024414 6.65258789 C-5.60724121 5.59249512 -5.21423828 4.53240234 -4.80932617 3.44018555 C-3.47229937 0.1374729 -3.47229937 0.1374729 0 0 Z " fill="#EC8121" transform="translate(244.867431640625,-0.113525390625)"/>
<path d="M0 0 C0.99 0.33 1.98 0.66 3 1 C4.26074219 3.60205078 4.26074219 3.60205078 5.546875 7.1953125 C5.79103149 7.86658676 6.03518799 8.53786102 6.28674316 9.22947693 C7.11858928 11.52424983 7.93393152 13.82457339 8.75 16.125 C9.34091225 17.76337642 9.93307499 19.40130227 10.52636719 21.03881836 C11.88729394 24.79895267 13.24196926 28.56127552 14.59375 32.32470703 C18.65136353 43.60244803 22.77909993 54.85481785 26.89351273 66.11192703 C28.71659102 71.10047263 30.53626638 76.09025039 32.35449219 81.08056641 C33.08992671 83.09808224 33.8254389 85.11556973 34.56098938 87.13304329 C35.24928556 89.02157448 35.93684656 90.91037358 36.62438965 92.79917908 C37.24779236 94.50842308 37.24779236 94.50842308 37.88378906 96.25219727 C38.2457135 97.24566666 38.60763794 98.23913605 38.98052979 99.26271057 C39.64428432 101.04489925 40.35966085 102.80896548 41.13226318 104.54673767 C42 107 42 107 42 112 C32.1 112 22.2 112 12 112 C7.50027607 103.00055213 7.50027607 103.00055213 6.08056641 99.03125 C5.7598819 98.14252197 5.43919739 97.25379395 5.10879517 96.33813477 C4.77640839 95.40155029 4.44402161 94.46496582 4.1015625 93.5 C3.74411957 92.50605225 3.38667664 91.51210449 3.0184021 90.48803711 C1.88259763 87.32701023 0.75352207 84.1636332 -0.375 81 C-1.49451994 77.8743507 -2.61546105 74.74921816 -3.73760986 71.62451172 C-4.46579469 69.59441579 -5.19169219 67.56349786 -5.91522217 65.53173828 C-7.51873665 61.04275003 -9.14724895 56.57325077 -10.91113281 52.14453125 C-11.19880524 51.41484131 -11.48647766 50.68515137 -11.78286743 49.93334961 C-12.53933066 48.03146225 -13.31309376 46.13648027 -14.08837891 44.2421875 C-15.7999534 38.15495953 -13.45285447 33.00633001 -11.34765625 27.265625 C-11.08746201 26.54638855 -10.82726776 25.8271521 -10.55918884 25.08612061 C-10.01119407 23.57584434 -9.46057659 22.06651739 -8.9074707 20.55810547 C-8.06104636 18.24602927 -7.22633427 15.92995152 -6.39257812 13.61328125 C-5.85746756 12.14297541 -5.32168378 10.67291437 -4.78515625 9.203125 C-4.53613052 8.51043518 -4.2871048 7.81774536 -4.03053284 7.10406494 C-2.96572112 4.2218004 -2.19954083 2.19954083 0 0 Z " fill="#EC8120" transform="translate(122,73)"/>
<path d="M0 0 C9.9 0 19.8 0 30 0 C31.2185275 3.6555825 30.66382343 4.63302825 29.36035156 8.1887207 C28.97497223 9.25387909 28.5895929 10.31903748 28.1925354 11.41647339 C27.76290497 12.57454498 27.33327454 13.73261658 26.890625 14.92578125 C26.4525351 16.12864777 26.01444519 17.33151428 25.56307983 18.5708313 C24.38025288 21.81803324 23.18623512 25.06101362 21.98999786 28.30329514 C20.75940287 31.64454456 19.53912439 34.98955596 18.31787109 38.33422852 C15.96312143 44.77842448 13.59745789 51.21855759 11.2286377 57.65759277 C9.61275634 62.05346435 8.00444316 66.45207522 6.3984375 70.8515625 C4.66247148 75.60664292 2.91625796 80.35778261 1.16015625 85.10546875 C-0.28929187 89.03236511 -1.69492977 92.97099459 -3.06640625 96.92578125 C-3.38625488 97.83465088 -3.70610352 98.74352051 -4.03564453 99.67993164 C-4.6100365 101.31680879 -5.17344409 102.95761203 -5.72216797 104.60327148 C-7.53656597 109.73332975 -7.53656597 109.73332975 -10.09594727 111.20605469 C-10.72428467 111.46805664 -11.35262207 111.73005859 -12 112 C-15.69610207 105.03094774 -18.49592154 97.82307376 -21.25 90.4375 C-21.93835938 88.64795898 -21.93835938 88.64795898 -22.640625 86.82226562 C-23.07375 85.66275391 -23.506875 84.50324219 -23.953125 83.30859375 C-24.34661133 82.26501709 -24.74009766 81.22144043 -25.14550781 80.14624023 C-26.74479351 74.25767029 -26.10691905 69.41828471 -24.04394531 63.74853516 C-23.61639954 62.55684723 -23.18885376 61.3651593 -22.74835205 60.13735962 C-22.27527257 58.85447234 -21.80185507 57.57170967 -21.328125 56.2890625 C-20.84357864 54.95331289 -20.35993104 53.61723696 -19.87713623 52.28085327 C-18.86495524 49.48615068 -17.84559021 46.69422087 -16.8203125 43.90429688 C-15.51493556 40.35198791 -14.2220285 36.79531411 -12.93385696 33.23673439 C-11.69463265 29.8150902 -10.4490957 26.39575453 -9.203125 22.9765625 C-8.97017982 22.33570332 -8.73723465 21.69484413 -8.49723053 21.03456497 C-7.82613193 19.19187369 -7.14995421 17.35103468 -6.47363281 15.51025391 C-6.09168762 14.4676944 -5.70974243 13.42513489 -5.31622314 12.35098267 C-3.67755811 8.17909269 -1.82038351 4.0958629 0 0 Z " fill="#EC8120" transform="translate(201,0)"/>
<path d="M0 0 C0.99 0.33 1.98 0.66 3 1 C4.23273385 3.65037777 5.27355928 6.19540799 6.25 8.9375 C6.53101563 9.67935547 6.81203125 10.42121094 7.1015625 11.18554688 C7.80278067 13.10001134 8.40860484 15.04881244 9 17 C8.67 17.66 8.34 18.32 8 19 C7.54625 18.21625 7.0925 17.4325 6.625 16.625 C4.48711214 13.17148884 2.61773783 11.68827765 -1 10 C-1 9.34 -1 8.68 -1 8 C-1.66 8 -2.32 8 -3 8 C-3 11.3 -3 14.6 -3 18 C-3.66 18 -4.32 18 -5 18 C-5.28875 18.639375 -5.5775 19.27875 -5.875 19.9375 C-7 22 -7 22 -9 23 C-3.76595745 3.76595745 -3.76595745 3.76595745 0 0 Z " fill="#DF8126" transform="translate(122,73)"/>
<path d="M0 0 C0.33 0 0.66 0 1 0 C1.35538226 4.97535159 0.19554667 7.60890666 -2 12 C-2.25196823 15.25100364 -2.25196823 15.25100364 -2 18 C-2.66 18.33 -3.32 18.66 -4 19 C-4.8374572 21.27897183 -4.8374572 21.27897183 -5.5 23.9375 C-6.78277886 28.78277886 -6.78277886 28.78277886 -9 31 C-8.51564881 23.56559364 -6.59434231 17.37098658 -3.9375 10.4375 C-3.37192383 8.92446289 -3.37192383 8.92446289 -2.79492188 7.38085938 C-1.87241929 4.91696007 -0.9406749 2.45700576 0 0 Z " fill="#DC8229" transform="translate(80,72)"/>
<path d="M0 0 C0.33 0 0.66 0 1 0 C1 2.31 1 4.62 1 7 C0.34 7 -0.32 7 -1 7 C-0.67 9.64 -0.34 12.28 0 15 C-0.99 15.33 -1.98 15.66 -3 16 C-4.22969878 19.51190809 -4.22969878 19.51190809 -5 23 C-5.66 23 -6.32 23 -7 23 C-5.48526781 15.01323028 -2.83197448 7.59877122 0 0 Z " fill="#DE812A" transform="translate(22,119)"/>
<path d="M0 0 C0.99 0.33 1.98 0.66 3 1 C3 2.66666667 3 4.33333333 3 6 C5.44480079 5.81171228 5.44480079 5.81171228 8 5 C9.36020151 3.03241727 9.36020151 3.03241727 10 1 C9.43454163 4.95820859 8.19097652 7.6659053 6 11 C5.01 10.67 4.02 10.34 3 10 C1.25327015 6.5065403 0 3.93154432 0 0 Z " fill="#DA8029" transform="translate(185,101)"/>
<path d="M0 0 C0.33 0 0.66 0 1 0 C1.59672183 7.51869512 0.14352972 11.74031045 -4 18 C-4.66 18 -5.32 18 -6 18 C-4.23536928 11.89262558 -2.30442525 5.92566493 0 0 Z " fill="#DE8126" transform="translate(203,105)"/>
<path d="M0 0 C1.70512741 2.55769112 2.68063145 4.53999311 3.7265625 7.37890625 C4.0359375 8.21744141 4.3453125 9.05597656 4.6640625 9.91992188 C4.98117188 10.79197266 5.29828125 11.66402344 5.625 12.5625 C5.94984375 13.43841797 6.2746875 14.31433594 6.609375 15.21679688 C9 21.74079241 9 21.74079241 9 24 C8.34 24 7.68 24 7 24 C5.65179037 20.33861851 4.3200792 16.67161814 3 13 C2.69191406 12.1440625 2.38382813 11.288125 2.06640625 10.40625 C1.79699219 9.6328125 1.52757812 8.859375 1.25 8.0625 C1.00765625 7.37285156 0.7653125 6.68320313 0.515625 5.97265625 C0 4 0 4 0 0 Z " fill="#D4802D" transform="translate(140,117)"/>
<path d="M0 0 C0.66 0 1.32 0 2 0 C7.55580866 14.59681093 7.55580866 14.59681093 8 22 C5.67899838 18.51849756 4.32324845 14.89433316 2.875 11 C2.59785156 10.27554688 2.32070312 9.55109375 2.03515625 8.8046875 C0.88904289 5.74462128 0 3.29457901 0 0 Z " fill="#D97D27" transform="translate(127,54)"/>
<path d="M0 0 C0.66 0 1.32 0 2 0 C1.21824485 4.84688192 -0.39844278 9.3766367 -2 14 C-4 13 -4 13 -4.8125 10.75 C-5.05336326 7.21733884 -4.02171218 5.84537269 -2 3 C-1.34 2.01 -0.68 1.02 0 0 Z " fill="#DE8028" transform="translate(95,1)"/>
<path d="M0 0 C1.65 0 3.3 0 5 0 C6.25955231 3.77865693 5.48087189 5.03411786 4.0625 8.6875 C3.68222656 9.68136719 3.30195313 10.67523438 2.91015625 11.69921875 C2.60980469 12.45847656 2.30945313 13.21773437 2 14 C1.67 14 1.34 14 1 14 C0.77963136 10.14354879 1.39644899 7.50776784 3 4 C2.01 4 1.02 4 0 4 C0 2.68 0 1.36 0 0 Z " fill="#DF832A" transform="translate(226,0)"/>
<path d="M0 0 C1 2 1 2 -0.21484375 5.6953125 C-0.78133585 7.17485658 -1.35591889 8.65132181 -1.9375 10.125 C-2.22818359 10.87910156 -2.51886719 11.63320312 -2.81835938 12.41015625 C-3.53874998 14.27608602 -4.26850404 16.1383958 -5 18 C-5.33 18 -5.66 18 -6 18 C-5.88610125 16.20759337 -5.75852313 14.41605165 -5.625 12.625 C-5.55539063 11.62726563 -5.48578125 10.62953125 -5.4140625 9.6015625 C-5 7 -5 7 -3 5 C-2.835 4.319375 -2.67 3.63875 -2.5 2.9375 C-2.335 2.298125 -2.17 1.65875 -2 1 C-1.34 0.67 -0.68 0.34 0 0 Z " fill="#DC8028" transform="translate(73,65)"/>
<path d="M0 0 C0.33 0 0.66 0 1 0 C1 4.29 1 8.58 1 13 C-0.32 13 -1.64 13 -3 13 C-3 13.66 -3 14.32 -3 15 C-3.66 15 -4.32 15 -5 15 C-1.92482916 4.44191344 -1.92482916 4.44191344 0 0 Z " fill="#E18227" transform="translate(62,10)"/>
<path d="M0 0 C0.66 0 1.32 0 2 0 C1.35083537 6.00477279 -0.85795003 11.400781 -3 17 C-3.33 17 -3.66 17 -4 17 C-4.17835515 12.45194365 -3.99785435 9.1205746 -2 5 C-1.34 5 -0.68 5 0 5 C0 3.35 0 1.7 0 0 Z " fill="#D68431" transform="translate(81,151)"/>
<path d="M0 0 C0.99 0.33 1.98 0.66 3 1 C-0.07517084 11.55808656 -0.07517084 11.55808656 -2 16 C-3.10844919 12.67465243 -2.84454356 10.37817425 -2 7 C-1.34 7 -0.68 7 0 7 C-0.185625 6.030625 -0.37125 5.06125 -0.5625 4.0625 C-0.706875 3.051875 -0.85125 2.04125 -1 1 C-0.67 0.67 -0.34 0.34 0 0 Z " fill="#DA822A" transform="translate(91,121)"/>
<path d="M0 0 C1.32 0.33 2.64 0.66 4 1 C4 1.99 4 2.98 4 4 C4.15127402 5.56406528 4.31902522 7.12659252 4.5 8.6875 C4.5928125 9.49574219 4.685625 10.30398437 4.78125 11.13671875 C4.8534375 11.75160156 4.925625 12.36648437 5 13 C3.09610151 10.14415227 2.30537823 8.0688238 1.375 4.8125 C0.98441406 3.46091797 0.98441406 3.46091797 0.5859375 2.08203125 C0.39257812 1.39496094 0.19921875 0.70789063 0 0 Z " fill="#DD7F24" transform="translate(114,131)"/>
<path d="M0 0 C0.33 0 0.66 0 1 0 C1.09978121 3.49234244 0.77842938 6.59437148 0 10 C-0.66 10 -1.32 10 -2 10 C-1.67 10.99 -1.34 11.98 -1 13 C-1.66 13 -2.32 13 -3 13 C-3 13.99 -3 14.98 -3 16 C-3.66 16 -4.32 16 -5 16 C-4.54548816 14.26982492 -4.08621143 12.54090123 -3.625 10.8125 C-3.36976563 9.84957031 -3.11453125 8.88664062 -2.8515625 7.89453125 C-2.05233704 5.17789793 -1.0968638 2.60862825 0 0 Z " fill="#DA802C" transform="translate(212,80)"/>
<path d="M0 0 C0.99 0 1.98 0 3 0 C2.01 3.3 1.02 6.6 0 10 C-2 6 -2 6 -2 2 C-1.34 1.34 -0.68 0.68 0 0 Z " fill="#E08328" transform="translate(110,70)"/>
<path d="M0 0 C0.33 0 0.66 0 1 0 C0.58846263 4.97093824 0.20399168 9.44508386 -2 14 C-2.33 14 -2.66 14 -3 14 C-2.88570603 12.22844346 -2.75816963 10.45773771 -2.625 8.6875 C-2.55539063 7.70136719 -2.48578125 6.71523437 -2.4140625 5.69921875 C-2 3 -2 3 0 0 Z " fill="#E17F24" transform="translate(48,129)"/>
<path d="M0 0 C1.23593891 3.70781672 0.5678132 4.67510253 -0.9375 8.1875 C-1.31777344 9.08855469 -1.69804688 9.98960938 -2.08984375 10.91796875 C-2.54037109 11.94857422 -2.54037109 11.94857422 -3 13 C-5.03125 9.2734375 -5.03125 9.2734375 -4.75 6.8125 C-4 5 -4 5 -2 4 C-0.86649466 1.98330173 -0.86649466 1.98330173 0 0 Z " fill="#D9812C" transform="translate(57,108)"/>
<path d="M0 0 C1.25955231 3.77865693 0.48087189 5.03411786 -0.9375 8.6875 C-1.31777344 9.68136719 -1.69804687 10.67523438 -2.08984375 11.69921875 C-2.39019531 12.45847656 -2.69054687 13.21773437 -3 14 C-3.33 14 -3.66 14 -4 14 C-4.05422947 12.5629191 -4.09289723 11.12524538 -4.125 9.6875 C-4.14820313 8.88699219 -4.17140625 8.08648437 -4.1953125 7.26171875 C-4 5 -4 5 -2 2 C-1.34 2 -0.68 2 0 2 C0 1.34 0 0.68 0 0 Z " fill="#DE7F28" transform="translate(207,66)"/>
<path d="M0 0 C1.96602468 2.94903702 2.73897585 4.51967799 3 8 C1.625 9.8125 1.625 9.8125 0 11 C-0.33 11 -0.66 11 -1 11 C-0.67 7.37 -0.34 3.74 0 0 Z " fill="#E28228" transform="translate(157,164)"/>
<path d="M0 0 C2.12508244 3.18762365 2.5020163 5.26512223 3 9 C1.68 9.99 0.36 10.98 -1 12 C-1.33 11.34 -1.66 10.68 -2 10 C-1.34 10 -0.68 10 0 10 C-0.185625 9.46375 -0.37125 8.9275 -0.5625 8.375 C-1.11419324 5.38009386 -0.60597444 2.96254171 0 0 Z " fill="#E38129" transform="translate(163,68)"/>
<path d="M0 0 C0.66 0 1.32 0 2 0 C1.32829194 3.8063457 0.27253436 7.35206816 -1 11 C-1.66 11 -2.32 11 -3 11 C-3 9.02 -3 7.04 -3 5 C-2.34 4.67 -1.68 4.34 -1 4 C-0.34786708 1.97536745 -0.34786708 1.97536745 0 0 Z " fill="#DF8027" transform="translate(85,140)"/>
<path d="M0 0 C0.66 0 1.32 0 2 0 C2 0.66 2 1.32 2 2 C3.65 1.34 5.3 0.68 7 0 C6.67 1.65 6.34 3.3 6 5 C5.01 5.33 4.02 5.66 3 6 C2.34 5.67 1.68 5.34 1 5 C0.375 2.4375 0.375 2.4375 0 0 Z " fill="#D8822D" transform="translate(207,162)"/>
<path d="M0 0 C0.66 0 1.32 0 2 0 C2.99 3.3 3.98 6.6 5 10 C4.01 9.01 3.02 8.02 2 7 C2 6.34 2 5.68 2 5 C1.34 5 0.68 5 0 5 C-0.33 4.01 -0.66 3.02 -1 2 C-0.67 1.34 -0.34 0.68 0 0 Z " fill="#D97A2A" transform="translate(148,142)"/>
<path d="M0 0 C0.33 0 0.66 0 1 0 C1 1.65 1 3.3 1 5 C1.66 5 2.32 5 3 5 C2.34 6.32 1.68 7.64 1 9 C0.01 8.67 -0.98 8.34 -2 8 C-1.34 5.36 -0.68 2.72 0 0 Z " fill="#E08228" transform="translate(52,149)"/>
<path d="M0 0 C0.33 0 0.66 0 1 0 C1.25 6.625 1.25 6.625 -1 10 C-1.66 10 -2.32 10 -3 10 C-2.01 6.7 -1.02 3.4 0 0 Z " fill="#DB812C" transform="translate(58,133)"/>
<path d="M0 0 C0.33 0.99 0.66 1.98 1 3 C1.66 3 2.32 3 3 3 C3 3.66 3 4.32 3 5 C2.01 5.66 1.02 6.32 0 7 C-0.33 7.99 -0.66 8.98 -1 10 C-1.66 10 -2.32 10 -3 10 C-2.01 6.7 -1.02 3.4 0 0 Z " fill="#DD8029" transform="translate(64,116)"/>
<path d="M0 0 C0.66 0 1.32 0 2 0 C1.01 3.3 0.02 6.6 -1 10 C-1.33 10 -1.66 10 -2 10 C-2.33 7.69 -2.66 5.38 -3 3 C-2.34 3 -1.68 3 -1 3 C-0.67 2.01 -0.34 1.02 0 0 Z " fill="#D9812C" transform="translate(77,51)"/>
<path d="M0 0 C1.90389849 2.85584773 2.69462177 4.9311762 3.625 8.1875 C4.01558594 9.53908203 4.01558594 9.53908203 4.4140625 10.91796875 C4.60742188 11.60503906 4.80078125 12.29210938 5 13 C4.01 12.67 3.02 12.34 2 12 C0.65743047 7.68964518 0 4.52218352 0 0 Z " fill="#D28333" transform="translate(143,13)"/>
<path d="M0 0 C1 2 1 2 0.44140625 3.9453125 C0.15136719 4.66460937 -0.13867188 5.38390625 -0.4375 6.125 C-0.72496094 6.84945312 -1.01242188 7.57390625 -1.30859375 8.3203125 C-1.53675781 8.87460938 -1.76492187 9.42890625 -2 10 C-2.33 10 -2.66 10 -3 10 C-3.33 7.69 -3.66 5.38 -4 3 C-3.01 3 -2.02 3 -1 3 C-0.67 2.01 -0.34 1.02 0 0 Z " fill="#DC802C" transform="translate(76,168)"/>
<path d="M0 0 C1.25541557 3.76624671 0.37061958 5.37188934 -1 9 C-1.99 9 -2.98 9 -4 9 C-3.67 7.68 -3.34 6.36 -3 5 C-2.34 5 -1.68 5 -1 5 C-0.67 3.35 -0.34 1.7 0 0 Z " fill="#DB832E" transform="translate(240,87)"/>
<path d="M0 0 C-0.99 3.3 -1.98 6.6 -3 10 C-3.33 10 -3.66 10 -4 10 C-5.3442623 4.62295082 -5.3442623 4.62295082 -3.6875 1.625 C-2 0 -2 0 0 0 Z " fill="#DA8125" transform="translate(215,48)"/>
<path d="M0 0 C0.33 0 0.66 0 1 0 C1.33 1.98 1.66 3.96 2 6 C1.01 6.33 0.02 6.66 -1 7 C-1.73323796 9.01508358 -1.73323796 9.01508358 -2 11 C-3 9 -3 9 -2.44140625 6.8359375 C-2.15136719 6.02382812 -1.86132812 5.21171875 -1.5625 4.375 C-1.27503906 3.55773437 -0.98757812 2.74046875 -0.69140625 1.8984375 C-0.46324219 1.27195313 -0.23507812 0.64546875 0 0 Z " fill="#DB802C" transform="translate(6,163)"/>
<path d="M0 0 C2.18975773 3.28463659 2.99806563 6.20696275 4 10 C3.01 9.67 2.02 9.34 1 9 C0.67 6.03 0.34 3.06 0 0 Z " fill="#D9842C" transform="translate(195,156)"/>
</svg>
