<?xml version="1.0" standalone="no"?>
<!DOCTYPE svg PUBLIC "-//W3C//DTD SVG 20010904//EN"
 "http://www.w3.org/TR/2001/REC-SVG-20010904/DTD/svg10.dtd">
<svg version="1.0" xmlns="http://www.w3.org/2000/svg"
 width="225.000000pt" height="225.000000pt" viewBox="0 0 225.000000 225.000000"
 preserveAspectRatio="xMidYMid meet">

<g transform="translate(0.000000,225.000000) scale(0.100000,-0.100000)"
fill="#000000" stroke="none">
<path d="M995 2239 c-161 -17 -363 -93 -507 -190 -74 -50 -192 -162 -248 -234
-261 -339 -309 -789 -125 -1172 58 -122 112 -200 207 -299 157 -163 351 -269
587 -320 93 -20 318 -23 411 -5 236 46 428 147 596 315 168 168 269 360 315
596 16 84 16 306 0 390 -43 223 -142 417 -294 577 -96 101 -182 164 -312 228
-132 66 -250 101 -386 115 -112 11 -129 11 -244 -1z m112 -917 l193 -233 0
236 0 235 125 0 125 0 0 -445 0 -445 -107 1 -108 0 -190 231 -190 231 -3 -231
-2 -232 -125 0 -125 0 0 445 0 446 107 -3 107 -3 193 -233z"/>
</g>
</svg>
