<svg width="32" height="32" viewBox="0 0 32 32" fill="none" xmlns="http://www.w3.org/2000/svg">
<path d="M25.6 12H14.4C13.0745 12 12 13.0745 12 14.4V25.6C12 26.9255 13.0745 28 14.4 28H25.6C26.9255 28 28 26.9255 28 25.6V14.4C28 13.0745 26.9255 12 25.6 12Z" fill="url(#paint0_linear_1_168)" fill-opacity="0.24" stroke="white"/>
<path opacity="0.2" d="M10.4 24C9.76348 24 9.15303 23.7471 8.70294 23.2971C8.25286 22.847 8 22.2365 8 21.6V10.4C8 9.76348 8.25286 9.15303 8.70294 8.70294C9.15303 8.25286 9.76348 8 10.4 8H21.6C22.2365 8 22.847 8.25286 23.2971 8.70294C23.7471 9.15303 24 9.76348 24 10.4" stroke="white"/>
<path opacity="0.2" d="M6.4 20C5.76348 20 5.15303 19.7471 4.70294 19.2971C4.25286 18.847 4 18.2365 4 17.6V6.4C4 5.76348 4.25286 5.15303 4.70294 4.70294C5.15303 4.25286 5.76348 4 6.4 4H17.6C18.2365 4 18.847 4.25286 19.2971 4.70294C19.7471 5.15303 20 5.76348 20 6.4" stroke="white"/>
<defs>
<linearGradient id="paint0_linear_1_168" x1="20" y1="12" x2="20" y2="28" gradientUnits="userSpaceOnUse">
<stop stop-color="white" stop-opacity="0"/>
<stop offset="1" stop-color="white"/>
</linearGradient>
</defs>
</svg>
