<svg width="40" height="40" viewBox="0 0 40 40" fill="none" xmlns="http://www.w3.org/2000/svg">
<path d="M18 17V35L23 28H32L18 17Z" fill="white" stroke="white" stroke-linejoin="round"/>
<path d="M20 29C24.9706 29 29 24.9706 29 20C29 15.0294 24.9706 11 20 11C15.0294 11 11 15.0294 11 20C11 24.9706 15.0294 29 20 29Z" fill="white" fill-opacity="0.12"/>
<path opacity="0.4" d="M20 5V7" stroke="white" stroke-linecap="round" stroke-linejoin="round"/>
<path d="M27.5 7.00977L26.5 8.74177M32.99 12.4998L31.258 13.4998M35 19.9998H33M8.742 26.4998L7.01 27.4998M7 19.9998H5" stroke="white" stroke-linecap="round" stroke-linejoin="round"/>
<path opacity="0.4" d="M8.74177 13.4998L7.00977 12.4998M13.4998 8.74177L12.4998 7.00977" stroke="white" stroke-linecap="round" stroke-linejoin="round"/>
</svg>
